<svg id="Layer_1" data-name="Layer 1" xmlns="http://www.w3.org/2000/svg" viewBox="0 0 284.24 99.93">
  <defs>
    <style>
      .cls-1 {
        fill: #0b2975;
      }

      .cls-2 {
        fill: #3666b4;
      }
    </style>
  </defs>
  <rect class="cls-1" x="234.96" y="75.38" width="29.65" height="2.59"/>
  <rect class="cls-1" x="6.44" y="75.38" width="29.65" height="2.59"/>
  <g>
    <path class="cls-2" d="M10.29,12.39a1.42,1.42,0,0,1,.38-.84,1.19,1.19,0,0,1,.92-.35h9.32a1.25,1.25,0,0,1,1.29,1l7.33,24.47,7.38-24.47a1.39,1.39,0,0,1,1.38-1H47.5a1.28,1.28,0,0,1,.88.34,1.23,1.23,0,0,1,.44.85q.95,9.48,1.93,18.82T52.68,50v.13c0,.7-.4,1.05-1.19,1.05H43.87A1.13,1.13,0,0,1,42.57,50L40.23,29.2l-6.06,21a1.54,1.54,0,0,1-.4.65.92.92,0,0,1-.66.38H26a1,1,0,0,1-.69-.37,1.17,1.17,0,0,1-.39-.66L18.89,29.25,16.54,50c0,.79-.47,1.18-1.32,1.18H7.6A1,1,0,0,1,6.44,50Z"/>
    <path class="cls-2" d="M71.27,12.25a.8.8,0,0,1,.17-.35,2.08,2.08,0,0,1,.37-.35,1.58,1.58,0,0,1,.46-.25,1.12,1.12,0,0,1,.45-.1h6.9a1.16,1.16,0,0,1,.78.28,3.7,3.7,0,0,1,.49.5l.67,1.54L95.71,50a.82.82,0,0,1-.08.88,1.34,1.34,0,0,1-1,.33H86.87a1.64,1.64,0,0,1-1-.23,1.43,1.43,0,0,1-.52-.76c-.36-.92-.71-1.83-1-2.74s-.69-1.82-1-2.73H69c-.34.91-.68,1.82-1,2.73s-.7,1.82-1,2.74a1.34,1.34,0,0,1-1.37,1h-8a1.31,1.31,0,0,1-.85-.27c-.23-.18-.27-.44-.12-.8Zm4.9,11.53c-.34.92-.69,1.91-1,3s-.69,2.13-1,3.2-.69,2.15-1,3.2-.7,2-1,3h8.27Z"/>
    <path class="cls-2" d="M104.92,38.28c.3.25.7.59,1.17,1a16.15,16.15,0,0,0,1.63,1.25A14,14,0,0,0,110.44,42a8,8,0,0,0,2.83.51,7.29,7.29,0,0,0,2.31-.31,3.82,3.82,0,0,0,1.47-.82,2.93,2.93,0,0,0,.76-1.18,4.25,4.25,0,0,0,.23-1.43,2.09,2.09,0,0,0-.63-1.49,6.5,6.5,0,0,0-1.55-1.17A13.21,13.21,0,0,0,114,35.2l-1.73-.6a40.68,40.68,0,0,1-5.66-2.44,17.55,17.55,0,0,1-4-2.91,10.89,10.89,0,0,1-2.42-3.52,11,11,0,0,1-.81-4.3,10.2,10.2,0,0,1,1-4.55,10,10,0,0,1,2.88-3.5,13.68,13.68,0,0,1,4.52-2.25,20.4,20.4,0,0,1,5.9-.79,19.58,19.58,0,0,1,4.7.55,17.83,17.83,0,0,1,4.43,1.77q.92.54,1.74,1.11a17.78,17.78,0,0,1,1.44,1.12,6.56,6.56,0,0,1,1,1,1.44,1.44,0,0,1,.37.83,1.22,1.22,0,0,1-.18.65,4.24,4.24,0,0,1-.52.67l-4.13,4.39a1.29,1.29,0,0,1-.91.46,1.22,1.22,0,0,1-.69-.21c-.21-.15-.43-.33-.69-.54L119.9,22c-.36-.3-.76-.62-1.2-.94a11.15,11.15,0,0,0-1.41-.88,9.6,9.6,0,0,0-1.59-.64,5.79,5.79,0,0,0-1.7-.26,8.87,8.87,0,0,0-1.67.15,4.51,4.51,0,0,0-1.37.47,2.7,2.7,0,0,0-.95.85,2.48,2.48,0,0,0,0,2.59,3.79,3.79,0,0,0,1.13,1,10.94,10.94,0,0,0,1.87.89c.75.28,1.62.58,2.6.9,1.91.63,3.66,1.29,5.27,2a17.56,17.56,0,0,1,4.16,2.45,10.18,10.18,0,0,1,2.74,3.39,10.63,10.63,0,0,1,1,4.76,11.79,11.79,0,0,1-1.21,5.38,12.28,12.28,0,0,1-3.33,4.11,15.51,15.51,0,0,1-5,2.63,19.7,19.7,0,0,1-6.14.93,17.35,17.35,0,0,1-6.09-1.11,23.74,23.74,0,0,1-5.58-3,14.93,14.93,0,0,1-1.82-1.55c-.49-.5-.88-.9-1.17-1.21l-.08-.08a.25.25,0,0,0-.05-.07l-.06,0s0-.06-.05-.07l-.06,0a1.91,1.91,0,0,1-.62-1.08,1.55,1.55,0,0,1,.62-1L102.85,38a1.74,1.74,0,0,1,.91-.41,1.08,1.08,0,0,1,.51.16A4.78,4.78,0,0,1,104.92,38.28Z"/>
    <path class="cls-2" d="M132.46,12.38a1.12,1.12,0,0,1,.36-.86,1.32,1.32,0,0,1,.9-.32h29a1.34,1.34,0,0,1,.86.3,1.2,1.2,0,0,1,.43.88v6.69a1.51,1.51,0,0,1-.34.93,1.13,1.13,0,0,1-.95.44h-9.3V50a1.29,1.29,0,0,1-.35.87,1.17,1.17,0,0,1-.91.39h-7.9a1.25,1.25,0,0,1-.86-.36A1.16,1.16,0,0,1,143,50V20.44h-9.27a1.21,1.21,0,0,1-.9-.35,1.35,1.35,0,0,1-.36-1Z"/>
    <path class="cls-2" d="M170.53,12.44a1.25,1.25,0,0,1,.31-.9,1.12,1.12,0,0,1,.87-.34h26.73a1.21,1.21,0,0,1,.92.35,1.31,1.31,0,0,1,.32.94v6.66a1.39,1.39,0,0,1-.32.88,1.14,1.14,0,0,1-.94.41H181v6.69h13.47a1.44,1.44,0,0,1,.85.24.93.93,0,0,1,.33.81V34a1.07,1.07,0,0,1-.29.72,1.05,1.05,0,0,1-.86.35H181V42h18.1a1.09,1.09,0,0,1,1.22,1.24V50a.67.67,0,0,1-.22.48c-.07.5-.44.75-1.1.75H171.71a1.25,1.25,0,0,1-.86-.28,1.12,1.12,0,0,1-.32-.87Z"/>
    <path class="cls-2" d="M207,12.44a1.29,1.29,0,0,1,.3-.9,1.08,1.08,0,0,1,.88-.34h17.41a13.12,13.12,0,0,1,5.2,1A13.54,13.54,0,0,1,235,15.05a13.08,13.08,0,0,1,2.84,4.17,12.61,12.61,0,0,1,1,5.08,12.17,12.17,0,0,1-.5,3.49,13.26,13.26,0,0,1-3.5,5.71,13.65,13.65,0,0,1-2.68,2l6.92,13c.13.25.29.54.49.89a1.77,1.77,0,0,1,.29.88.79.79,0,0,1-.28.66,1.14,1.14,0,0,1-.77.23h-9.24a1.34,1.34,0,0,1-.82-.27,1.22,1.22,0,0,1-.47-.72L221.75,37.9h-4.36V50.06c0,.77-.42,1.15-1.24,1.15h-8a1.25,1.25,0,0,1-.86-.28,1.12,1.12,0,0,1-.32-.87Zm21.1,12a4.62,4.62,0,0,0-.3-1.61,5.16,5.16,0,0,0-.84-1.48,5,5,0,0,0-1.29-1.14,4.5,4.5,0,0,0-1.67-.59l-1.41-.09c-.44,0-.92,0-1.45,0h-3.71v9.88h5c.33,0,.61,0,.87,0l.83-.08a4.17,4.17,0,0,0,1.7-.56,4.49,4.49,0,0,0,1.27-1.1,4.87,4.87,0,0,0,.78-1.48A5.38,5.38,0,0,0,228.06,24.4Z"/>
    <path class="cls-2" d="M259.49,26,266,12a4.1,4.1,0,0,1,.27-.48,1,1,0,0,1,.22-.21.49.49,0,0,1,.23-.08,1.26,1.26,0,0,0,.28-.07h10.38a.45.45,0,0,1,.31.12.39.39,0,0,1,.12.28,1.06,1.06,0,0,1-.38.68L264.65,34.89V50a1.11,1.11,0,0,1-1.24,1.26h-8.06a1,1,0,0,1-.83-.33,1.37,1.37,0,0,1-.3-.93V34.83L241.47,12.28a1,1,0,0,1-.35-.68.43.43,0,0,1,.11-.28.38.38,0,0,1,.3-.12H251.9l.3.07a.54.54,0,0,1,.22.08.83.83,0,0,1,.21.21q.1.15.3.48Z"/>
  </g>
  <g>
    <path class="cls-1" d="M58.63,64.81c-3.57,0-5.46,2-5.46,5.89v13c0,3.85,1.89,5.89,5.46,5.89s5.46-2,5.46-5.89V80.78H61.17V84c0,2.34-1.32,2.84-2.44,2.84S56.3,86.29,56.3,84V70.45c0-2.37,1.32-2.87,2.43-2.87s2.44.5,2.44,2.87v2.27h2.92v-2C64.09,66.85,62.2,64.81,58.63,64.81Z"/>
    <path class="cls-1" d="M90.39,64.81c-3.59,0-5.57,2.09-5.57,5.89v13c0,3.8,2,5.89,5.57,5.89S96,87.5,96,83.7v-13C96,66.9,94,64.81,90.39,64.81ZM92.83,84c0,2.37-1.33,2.87-2.44,2.87S88,86.32,88,84V70.45c0-2.37,1.32-2.87,2.44-2.87s2.44.5,2.44,2.87Z"/>
    <path class="cls-1" d="M123,65.1h-5.82V89.3H123c3.62,0,5.46-1.94,5.46-5.77V70.88C128.43,67,126.59,65.1,123,65.1Zm2.33,18.6c0,1.88-.81,2.83-2.4,2.83h-2.62V67.86h2.62c1.59,0,2.4,1,2.4,2.84Z"/>
    <rect class="cls-1" x="149.59" y="65.1" width="3.13" height="24.21"/>
    <polygon class="cls-1" points="174.21 65.09 174.21 89.31 176.94 89.31 176.94 68.56 182.55 89.31 185.88 89.31 185.88 65.09 183.18 65.09 183.18 82.7 178.43 65.09 174.21 65.09"/>
    <path class="cls-1" d="M215,72.72H218v-2c0-3.85-1.89-5.89-5.46-5.89s-5.46,2-5.46,5.89v13c0,3.85,1.89,5.89,5.46,5.89s5.46-2,5.46-5.89V76.17h-4.7v2.77H215v5c0,2.34-1.32,2.84-2.43,2.84s-2.44-.5-2.44-2.84V70.45c0-2.37,1.32-2.87,2.44-2.87s2.43.5,2.43,2.87Z"/>
  </g>
</svg>
