<svg xmlns="http://www.w3.org/2000/svg" version="1.1" xmlns:xlink="http://www.w3.org/1999/xlink" xmlns:svgjs="http://svgjs.dev/svgjs" width="1000" height="1000" viewBox="0 0 1000 1000"><rect width="1000" height="1000" fill="#ffffff"></rect><g transform="matrix(0.7,0,0,0.7,149.57575757575756,282.1265587044535)"><svg viewBox="0 0 396 247" data-background-color="#ffffff" preserveAspectRatio="xMidYMid meet" height="623" width="1000" xmlns="http://www.w3.org/2000/svg" xmlns:xlink="http://www.w3.org/1999/xlink"><g id="tight-bounds" transform="matrix(1,0,0,1,0.2400000000000091,-0.09999999999999432)"><svg viewBox="0 0 395.52 247.2" height="247.2" width="395.52"><g><svg></svg></g><g><svg viewBox="0 0 395.52 247.2" height="247.2" width="395.52"><g transform="matrix(1,0,0,1,146.54622539229672,47.215199999999996)"><svg viewBox="0 0 102.42754921540654 152.7696" height="152.7696" width="102.42754921540654"><g><svg viewBox="0 0 102.42754921540654 152.7696" height="152.7696" width="102.42754921540654"><g><svg viewBox="0 0 102.42754921540654 152.7696" height="152.7696" width="102.42754921540654"><g><svg viewBox="0 0 102.42754921540654 152.7696" height="152.7696" width="102.42754921540654"><g id="textblocktransform"><svg viewBox="0 0 102.42754921540654 152.7696" height="152.7696" width="102.42754921540654" id="textblock"><g><svg viewBox="0 0 102.42754921540654 152.7696" height="152.7696" width="102.42754921540654"><g transform="matrix(1,0,0,1,0,0)"><svg width="102.42754921540654" viewBox="2.299999952316284 -35 23.5 35.04999923706055" height="152.7696" data-palette-color="#0063db"><path d="M4.95-33.95L2.3-34.25 2.35-35 23.75-35 23.7-34.85 24.35-27.8 23.35-27.4 22.55-34 8.95-34 8.95-17.85 20.9-17.85Q21.15-17.8 21.35-17.98 21.55-18.15 21.55-18.45L21.55-18.45 21.75-21.9 22.55-22 22.55-13.45Q22.5-13.45 21.8-13.4L21.8-13.4 21.6-16.85 8.95-16.85 8.95-1 23.9-1 24.85-9 25.8-8.75 25.05 0 12.35 0 2.3 0.05 2.35-0.65 4.95-1Q5.45-1.05 5.55-1.65L5.55-1.65 5.55-33.3Q5.45-33.9 4.95-33.95L4.95-33.95Z" opacity="1" transform="matrix(1,0,0,1,0,0)" fill="#0063db" class="wordmark-text-0" data-fill-palette-color="primary" id="text-0"></path></svg></g></svg></g></svg></g></svg></g></svg></g></svg></g></svg></g><path d="M328.848 41.215L328.848 0 81.648 0 81.648 247.2 328.848 247.2 328.848 205.985 315.071 205.985 315.071 233.423 95.424 233.423 95.424 13.777 315.071 13.777 315.071 41.215Z" fill="#0063db" stroke="transparent" data-fill-palette-color="primary"></path></svg></g><defs></defs></svg><rect width="395.52" height="247.2" fill="none" stroke="none" visibility="hidden"></rect></g></svg></g></svg>